<svg width="31" height="31" viewBox="0 0 31 31" fill="none" xmlns="http://www.w3.org/2000/svg">
<g clip-path="url(#clip0_105_3869)">
<path d="M15.5 31C24.0604 31 31 24.0604 31 15.5C31 6.93959 24.0604 0 15.5 0C6.93959 0 0 6.93959 0 15.5C0 24.0604 6.93959 31 15.5 31Z" fill="#2787F5"/>
<path d="M17.7346 8.21875H13.2644C9.18478 8.21875 8.21875 9.18478 8.21875 13.2644V17.7346C8.21875 21.8142 9.18478 22.7803 13.2644 22.7803H17.7346C21.8142 22.7803 22.7803 21.8142 22.7803 17.7346V13.2644C22.7803 9.18478 21.804 8.21875 17.7346 8.21875ZM19.9748 18.608H18.9153C18.5144 18.608 18.3912 18.2895 17.6719 17.5599C17.045 16.9545 16.7677 16.8715 16.6124 16.8715C16.3965 16.8715 16.3348 16.9321 16.3348 17.2312V18.1869C16.3348 18.4439 16.2524 18.598 15.5743 18.598C14.4542 18.598 13.2108 17.9199 12.3371 16.6557C11.0218 14.8059 10.6621 13.4185 10.6621 13.1309C10.6621 12.9768 10.7227 12.833 11.0218 12.833H12.0813C12.3487 12.833 12.4513 12.9562 12.5539 13.2441C13.0779 14.7548 13.9516 16.0805 14.3098 16.0805C14.4433 16.0805 14.505 16.0199 14.505 15.6796V14.1175C14.4639 13.3982 14.0836 13.3365 14.0836 13.0798C14.0836 12.9565 14.1862 12.833 14.3509 12.833H16.016C16.2421 12.833 16.3242 12.9562 16.3242 13.2236V15.33C16.3242 15.5561 16.4268 15.6382 16.4885 15.6382C16.6221 15.6382 16.7353 15.5558 16.9817 15.3094C17.7422 14.4566 18.2868 13.1412 18.2868 13.1412C18.3588 12.9871 18.482 12.8433 18.7494 12.8433H19.8089C20.1274 12.8433 20.1995 13.0077 20.1274 13.2338C19.9939 13.8505 18.6991 15.6796 18.6991 15.6796C18.5862 15.8646 18.545 15.947 18.6991 16.1522C18.812 16.3063 19.1835 16.6248 19.4287 16.9127C19.881 17.4273 20.2303 17.8581 20.3227 18.156C20.4271 18.4539 20.2727 18.608 19.9748 18.608Z" fill="white"/>
</g>
<defs>
<clipPath id="clip0_105_3869">
<rect width="31" height="31" fill="white"/>
</clipPath>
</defs>
</svg>
