<svg width="30" height="30" viewBox="0 0 30 30" fill="none" xmlns="http://www.w3.org/2000/svg">
<path d="M20.625 15C20.625 14.7514 20.5262 14.5129 20.3504 14.3371C20.1746 14.1613 19.9361 14.0625 19.6875 14.0625C19.4389 14.0625 19.2004 14.1613 19.0246 14.3371C18.8488 14.5129 18.75 14.7514 18.75 15H20.625ZM15 18.75C14.7514 18.75 14.5129 18.8488 14.3371 19.0246C14.1613 19.2004 14.0625 19.4389 14.0625 19.6875C14.0625 19.9361 14.1613 20.1746 14.3371 20.3504C14.5129 20.5262 14.7514 20.625 15 20.625V18.75ZM9.375 15C9.375 15.2486 9.47377 15.4871 9.64959 15.6629C9.8254 15.8387 10.0639 15.9375 10.3125 15.9375C10.5611 15.9375 10.7996 15.8387 10.9754 15.6629C11.1512 15.4871 11.25 15.2486 11.25 15H9.375ZM15 11.25C15.2486 11.25 15.4871 11.1512 15.6629 10.9754C15.8387 10.7996 15.9375 10.5611 15.9375 10.3125C15.9375 10.0639 15.8387 9.8254 15.6629 9.64959C15.4871 9.47377 15.2486 9.375 15 9.375V11.25ZM12.3975 22.2C12.1551 22.1443 11.9005 22.1872 11.6897 22.3192C11.4789 22.4513 11.3291 22.6616 11.2734 22.9041C11.2177 23.1465 11.2606 23.4011 11.3927 23.6119C11.5247 23.8227 11.7351 23.9724 11.9775 24.0281L12.3975 22.2ZM4.99125 20.3184C5.17462 20.4864 5.4172 20.5746 5.66563 20.5637C5.91406 20.5528 6.14798 20.4437 6.31594 20.2603C6.48389 20.0769 6.57213 19.8344 6.56123 19.5859C6.55033 19.3375 6.44118 19.1036 6.25781 18.9356L4.99125 20.3184ZM18.0394 7.90875C18.2796 7.97315 18.5355 7.93949 18.7509 7.81519C18.9662 7.69089 19.1234 7.48612 19.1878 7.24594C19.2522 7.00575 19.2186 6.74982 19.0943 6.53445C18.97 6.31907 18.7652 6.1619 18.525 6.0975L18.0394 7.90875ZM24.9375 9.61688C24.8467 9.53102 24.7397 9.46417 24.6227 9.42026C24.5058 9.37635 24.3812 9.35626 24.2564 9.36118C24.1315 9.3661 24.0089 9.39592 23.8958 9.4489C23.7826 9.50187 23.6812 9.57693 23.5975 9.66966C23.5137 9.76239 23.4494 9.87092 23.4082 9.98888C23.367 10.1068 23.3498 10.2318 23.3576 10.3565C23.3654 10.4812 23.3981 10.6031 23.4536 10.715C23.5092 10.8269 23.5866 10.9266 23.6812 11.0081L24.9375 9.61688ZM26.25 15C26.25 15.435 26.0222 16.1278 25.4503 16.9837C24.8944 17.8162 24.0713 18.7134 23.0334 19.5403C20.9541 21.1978 18.1069 22.5 15 22.5V24.375C18.6244 24.375 21.8709 22.8647 24.2025 21.0066C25.3706 20.0756 26.3316 19.0387 27.0094 18.0253C27.6703 17.0362 28.125 15.9722 28.125 15H26.25ZM3.75 15C3.75 14.565 3.97781 13.8722 4.54969 13.0162C5.10563 12.1837 5.92875 11.2866 6.96656 10.4597C9.04594 8.80219 11.8931 7.5 15 7.5V5.625C11.3756 5.625 8.12906 7.13531 5.7975 8.99344C4.62937 9.92438 3.66844 10.9603 2.99063 11.9747C2.32969 12.9637 1.875 14.0278 1.875 15H3.75ZM18.75 15C18.75 15.9946 18.3549 16.9484 17.6516 17.6516C16.9484 18.3549 15.9946 18.75 15 18.75V20.625C16.4918 20.625 17.9226 20.0324 18.9775 18.9775C20.0324 17.9226 20.625 16.4918 20.625 15H18.75ZM11.25 15C11.25 14.0054 11.6451 13.0516 12.3483 12.3483C13.0516 11.6451 14.0054 11.25 15 11.25V9.375C13.5082 9.375 12.0774 9.96763 11.0225 11.0225C9.96763 12.0774 9.375 13.5082 9.375 15H11.25ZM15 22.5C14.1075 22.5 13.2366 22.3931 12.3975 22.2L11.9775 24.0281C12.9441 24.2494 13.9566 24.375 15 24.375V22.5ZM15 7.5C16.0481 7.5 17.0672 7.64812 18.0375 7.90875L18.525 6.0975C17.3758 5.78619 16.1906 5.62733 15 5.625V7.5ZM23.6794 11.0081C24.5222 11.7694 25.1794 12.5597 25.6209 13.2834C26.0728 14.0241 26.25 14.6175 26.25 15H28.125C28.125 14.13 27.7603 13.1906 27.2222 12.3075C26.6728 11.4056 25.8919 10.4794 24.9375 9.61688L23.6812 11.0081H23.6794ZM6.25781 18.9356C5.43469 18.1819 4.7925 17.4019 4.36312 16.6903C3.9225 15.96 3.75 15.3778 3.75 15H1.875C1.875 15.8597 2.23125 16.7869 2.75719 17.6588C3.29437 18.5494 4.05844 19.4644 4.99125 20.3184L6.25781 18.9356Z" fill="#A0A3AC"/>
<path d="M6.5625 23.4375L15 15L23.4375 6.5625" stroke="#A0A3AC" stroke-width="2" stroke-linecap="round" stroke-linejoin="round"/>
</svg>
