<svg width="155" height="155" viewBox="0 0 155 155" fill="none" xmlns="http://www.w3.org/2000/svg">
<path d="M155 77.5C155 120.302 120.302 155 77.5 155C34.6979 155 0 120.302 0 77.5C0 34.6979 34.6979 0 77.5 0C120.302 0 155 34.6979 155 77.5ZM18.7999 77.5C18.7999 109.919 45.0808 136.2 77.5 136.2C109.919 136.2 136.2 109.919 136.2 77.5C136.2 45.0808 109.919 18.7999 77.5 18.7999C45.0808 18.7999 18.7999 45.0808 18.7999 77.5Z" fill="#F12095"/>
<path d="M84.3636 145.253C84.8868 150.418 81.1147 155.09 75.9243 154.984C64.7789 154.757 53.7746 152.128 43.6782 147.23C30.7524 140.961 19.8236 131.222 12.1121 119.101C4.40053 106.98 0.209748 92.9548 0.00766777 78.5902C-0.150177 67.37 2.1304 56.288 6.64749 46.0965C8.7511 41.3504 14.5806 39.9128 19.0374 42.5752C23.4942 45.2377 24.8693 50.9922 22.9516 55.8165C20.1173 62.9467 18.697 70.5929 18.8057 78.3257C18.9588 89.2057 22.133 99.8291 27.9739 109.01C33.8148 118.19 42.0925 125.567 51.8827 130.315C58.841 133.69 66.3687 135.643 74.0281 136.097C79.2105 136.404 83.8403 140.088 84.3636 145.253Z" fill="#FFD000"/>
</svg>
