<svg width="155" height="155" viewBox="0 0 155 155" fill="none" xmlns="http://www.w3.org/2000/svg">
<path d="M155 77.5C155 120.302 120.302 155 77.5 155C34.6979 155 0 120.302 0 77.5C0 34.6979 34.6979 0 77.5 0C120.302 0 155 34.6979 155 77.5ZM18.7999 77.5C18.7999 109.919 45.0808 136.2 77.5 136.2C109.919 136.2 136.2 109.919 136.2 77.5C136.2 45.0808 109.919 18.7999 77.5 18.7999C45.0808 18.7999 18.7999 45.0808 18.7999 77.5Z" fill="#F12095"/>
<path d="M84.3636 145.253C84.8868 150.418 81.1143 155.09 75.9239 154.984C60.6135 154.673 45.6598 149.828 33.0065 140.955C17.775 130.275 6.89325 114.473 2.34844 96.4339C-2.19636 78.3949 -0.100945 59.323 8.25203 42.701C16.605 26.0791 30.6582 13.0162 47.8452 5.89804C65.0322 -1.22016 84.2061 -1.91876 101.866 3.92983C119.525 9.77843 134.492 21.7839 144.032 37.754C153.572 53.724 157.05 72.5928 153.83 90.9148C151.155 106.135 144.006 120.135 133.399 131.18C129.803 134.924 123.833 134.288 120.551 130.266C117.269 126.243 117.939 120.365 121.386 116.483C128.569 108.397 133.421 98.4327 135.314 87.6606C137.753 73.7832 135.119 59.4915 127.893 47.3955C120.667 35.2995 109.331 26.2063 95.955 21.7765C82.5794 17.3466 68.0566 17.8758 55.0388 23.2672C42.0211 28.6587 31.3769 38.5527 25.0502 51.1425C18.7235 63.7323 17.1364 78.1778 20.5787 91.8409C24.021 105.504 32.2631 117.473 43.7997 125.562C52.7549 131.842 63.2313 135.458 74.028 136.097C79.2104 136.405 83.8403 140.088 84.3636 145.253Z" fill="#FFD000"/>
</svg>
