<svg width="155" height="155" viewBox="0 0 155 155" fill="none" xmlns="http://www.w3.org/2000/svg">
<path d="M155 77.5C155 120.302 120.302 155 77.5 155C34.6979 155 0 120.302 0 77.5C0 34.6979 34.6979 0 77.5 0C120.302 0 155 34.6979 155 77.5ZM18.7999 77.5C18.7999 109.919 45.0808 136.2 77.5 136.2C109.919 136.2 136.2 109.919 136.2 77.5C136.2 45.0808 109.919 18.7999 77.5 18.7999C45.0808 18.7999 18.7999 45.0808 18.7999 77.5Z" fill="#F12095"/>
<path d="M84.3636 145.253C84.8868 150.418 81.1145 155.09 75.9241 154.984C62.0283 154.702 48.4008 150.684 36.5078 143.271C21.9436 134.194 10.8042 120.54 4.8366 104.45C-1.13101 88.3593 -1.58924 70.7433 3.53378 54.3646C8.65679 37.9858 19.0713 23.7707 33.1438 13.9486C47.2164 4.12656 64.151 -0.746816 81.2917 0.0928126C98.4325 0.932441 114.81 7.43758 127.855 18.588C140.9 29.7384 149.876 44.9033 153.373 61.7044C156.229 75.4241 155.301 89.601 150.774 102.742C149.083 107.65 143.398 109.58 138.73 107.308C134.062 105.036 132.201 99.4192 133.7 94.4489C136.515 85.1153 136.975 75.1766 134.968 65.5361C132.319 52.8106 125.521 41.3244 115.64 32.8788C105.759 24.4333 93.3547 19.5062 80.3719 18.8702C67.3892 18.2343 54.5626 21.9255 43.9037 29.3649C33.2449 36.8043 25.3568 47.5711 21.4765 59.9768C17.5962 72.3824 17.9433 85.7251 22.4633 97.9122C26.9833 110.099 35.4205 120.441 46.4517 127.317C54.8087 132.525 64.2963 135.521 74.028 136.097C79.2104 136.404 83.8403 140.088 84.3636 145.253Z" fill="#FFD000"/>
</svg>
