<svg width="158" height="73" viewBox="0 0 158 73" fill="none" xmlns="http://www.w3.org/2000/svg">
<path d="M1.35 14.5H16.855V18.84H11.395V32H6.88V18.84H1.35V14.5ZM29.2412 23.04C30.8745 23.8333 31.6912 25.1633 31.6912 27.03C31.6912 28.5233 31.1778 29.725 30.1512 30.635C29.1245 31.545 27.6895 32 25.8462 32H16.6412V14.5H25.1462C26.9662 14.5 28.3895 14.955 29.4162 15.865C30.4428 16.7517 30.9562 17.9417 30.9562 19.435C30.9562 20.975 30.3845 22.1767 29.2412 23.04ZM24.7262 18.21H20.8762V21.36H24.7262C26.0095 21.36 26.6512 20.835 26.6512 19.785C26.6512 18.735 26.0095 18.21 24.7262 18.21ZM20.8762 28.185H25.3212C26.6278 28.185 27.2812 27.625 27.2812 26.505C27.2812 26.015 27.1062 25.63 26.7562 25.35C26.4062 25.07 25.9278 24.93 25.3212 24.93H20.8762V28.185Z" fill="#252424"/>
<path d="M12.25 43.01C14.6067 43.01 16.6133 43.9083 18.27 45.705C19.95 47.5017 20.79 49.6833 20.79 52.25C20.79 54.8633 19.95 57.0567 18.27 58.83C16.6367 60.6033 14.63 61.49 12.25 61.49C9.8 61.49 7.91 60.6383 6.58 58.935V68H2.065V43.5H6.58V45.565C7.91 43.8617 9.8 43.01 12.25 43.01ZM7.945 55.82C8.855 56.73 10.01 57.185 11.41 57.185C12.81 57.185 13.965 56.73 14.875 55.82C15.8083 54.8867 16.275 53.6967 16.275 52.25C16.275 50.8033 15.8083 49.625 14.875 48.715C13.965 47.7817 12.81 47.315 11.41 47.315C10.01 47.315 8.855 47.7817 7.945 48.715C7.035 49.625 6.58 50.8033 6.58 52.25C6.58 53.6967 7.035 54.8867 7.945 55.82ZM33.5992 45.565V43.5H38.1142V61H33.5992V58.935C32.2458 60.6383 30.3442 61.49 27.8942 61.49C25.5608 61.49 23.5542 60.6033 21.8742 58.83C20.2175 57.0333 19.3892 54.84 19.3892 52.25C19.3892 49.6833 20.2175 47.5017 21.8742 45.705C23.5542 43.9083 25.5608 43.01 27.8942 43.01C30.3442 43.01 32.2458 43.8617 33.5992 45.565ZM25.2692 55.82C26.1792 56.73 27.3342 57.185 28.7342 57.185C30.1342 57.185 31.2892 56.73 32.1992 55.82C33.1325 54.8867 33.5992 53.6967 33.5992 52.25C33.5992 50.8033 33.1325 49.625 32.1992 48.715C31.2892 47.7817 30.1342 47.315 28.7342 47.315C27.3342 47.315 26.1792 47.7817 25.2692 48.715C24.3592 49.625 23.9042 50.8033 23.9042 52.25C23.9042 53.6967 24.3592 54.8867 25.2692 55.82ZM46.8284 61.49C44.075 61.49 41.8467 60.6033 40.1434 58.83C38.4634 57.0567 37.6234 54.805 37.6234 52.075C37.6234 49.1117 38.0667 46.8133 38.9534 45.18C39.8167 43.5467 41.6017 42.065 44.3084 40.735C44.3784 40.6883 44.5067 40.6183 44.6934 40.525C44.9034 40.4317 45.1134 40.3383 45.3234 40.245C45.5567 40.1517 45.7784 40.0583 45.9884 39.965L47.4584 39.23C47.8084 39.0667 48.1817 38.8567 48.5784 38.6C49.1617 38.25 49.5934 37.8883 49.8734 37.515C50.1534 37.1417 50.4567 36.5817 50.7834 35.835L54.4934 37.97C54.19 39.3933 53.5017 40.5017 52.4284 41.295C51.3317 42.0883 49.745 42.8817 47.6684 43.675C46.2217 44.235 45.1484 44.8067 44.4484 45.39C43.7484 45.9733 43.2467 46.685 42.9434 47.525C44.2267 46.195 45.9767 45.53 48.1934 45.53C50.1534 45.53 51.88 46.2417 53.3734 47.665C54.89 49.065 55.6484 50.9317 55.6484 53.265C55.6484 55.6683 54.8317 57.64 53.1984 59.18C51.5884 60.72 49.465 61.49 46.8284 61.49ZM46.7584 49.135C45.5917 49.135 44.565 49.4967 43.6784 50.22C42.7917 50.9667 42.3484 51.935 42.3484 53.125C42.3484 54.3617 42.7684 55.3767 43.6084 56.17C44.4717 56.9633 45.5334 57.36 46.7934 57.36C48.0767 57.36 49.115 56.975 49.9084 56.205C50.725 55.435 51.1334 54.455 51.1334 53.265C51.1334 52.075 50.725 51.095 49.9084 50.325C49.0917 49.5317 48.0417 49.135 46.7584 49.135Z" fill="#252424"/>
<path d="M34.5 22C34.5 17.8579 37.8579 14.5 42 14.5H130C134.142 14.5 137.5 17.8579 137.5 22V22.5V23C137.5 27.1421 134.142 30.5 130 30.5H42C37.8579 30.5 34.5 27.1421 34.5 23V22Z" stroke="#FFD000" stroke-width="3"/>
<path d="M58.5 51C58.5 46.8579 61.8579 43.5 66 43.5H114C118.142 43.5 121.5 46.8579 121.5 51V51.5V52C121.5 56.1421 118.142 59.5 114 59.5H66C61.8579 59.5 58.5 56.1421 58.5 52V51Z" stroke="#F12095" stroke-width="3"/>
<path d="M146.91 13.5H155.1V31H150.69V25.54H149.115L145.09 31H139.875L144.25 25.015C143.13 24.5483 142.232 23.8133 141.555 22.81C140.902 21.8067 140.575 20.71 140.575 19.52C140.575 17.91 141.158 16.4983 142.325 15.285C143.468 14.095 144.997 13.5 146.91 13.5ZM150.69 17.525H147.26C146.607 17.525 146.058 17.7233 145.615 18.12C145.195 18.5167 144.985 19.03 144.985 19.66C144.985 20.29 145.195 20.7917 145.615 21.165C146.058 21.5383 146.607 21.725 147.26 21.725H150.69V17.525Z" fill="#252424"/>
<path d="M123.35 42.5H138.855V46.84H133.395V60H128.88V46.84H123.35V42.5ZM150.208 44.565V42.5H154.723V60H150.208V57.935C148.854 59.6383 146.953 60.49 144.503 60.49C142.169 60.49 140.163 59.6033 138.483 57.83C136.826 56.0333 135.998 53.84 135.998 51.25C135.998 48.6833 136.826 46.5017 138.483 44.705C140.163 42.9083 142.169 42.01 144.503 42.01C146.953 42.01 148.854 42.8617 150.208 44.565ZM141.878 54.82C142.788 55.73 143.943 56.185 145.343 56.185C146.743 56.185 147.898 55.73 148.808 54.82C149.741 53.8867 150.208 52.6967 150.208 51.25C150.208 49.8033 149.741 48.625 148.808 47.715C147.898 46.7817 146.743 46.315 145.343 46.315C143.943 46.315 142.788 46.7817 141.878 47.715C140.968 48.625 140.513 49.8033 140.513 51.25C140.513 52.6967 140.968 53.8867 141.878 54.82Z" fill="#252424"/>
</svg>
