<svg width="269" height="343" viewBox="0 0 269 343" fill="none" xmlns="http://www.w3.org/2000/svg">
<g filter="url(#filter0_d_246_459)">
<rect x="43" y="43" width="183" height="257" rx="17" fill="#00F0FF"/>
</g>
<path d="M101.445 64.5117H74.0781C68.5553 64.5117 64.0781 68.9889 64.0781 74.5117V85.4567V106.402" stroke="white" stroke-width="5"/>
<path d="M64.0781 155.084L64.0781 189.238C64.0781 194.761 68.5553 199.238 74.0781 199.238H81.8033H99.5284" stroke="white" stroke-width="5"/>
<path d="M170 198.891H197.366C202.889 198.891 207.366 194.413 207.366 188.891V177.946V157.001" stroke="white" stroke-width="5"/>
<path d="M206.719 108.666V74.5117C206.719 68.9889 202.242 64.5117 196.719 64.5117H188.994L171.268 64.5117" stroke="white" stroke-width="5"/>
<rect x="61" y="215" width="150" height="7" rx="3.5" fill="white"/>
<rect x="61" y="227" width="112" height="7" rx="3.5" fill="white"/>
<rect x="61" y="239" width="72" height="7" rx="3.5" fill="white"/>
<rect x="61" y="263" width="72" height="28" rx="14" fill="white"/>
<rect x="137" y="263" width="28" height="28" rx="14" fill="white"/>
<path d="M135 126.072C140.227 126.072 145.24 124.014 148.935 120.35C152.631 116.686 154.708 111.717 154.708 106.536C154.708 101.355 152.631 96.3857 148.935 92.722C145.24 89.0583 140.227 87 135 87C129.773 87 124.76 89.0583 121.065 92.722C117.369 96.3857 115.292 101.355 115.292 106.536C115.292 111.717 117.369 116.686 121.065 120.35C124.76 124.014 129.773 126.072 135 126.072ZM135 134.655C108.797 134.655 92 148.989 92 155.968V169H178V155.968C178 147.528 162.098 134.655 135 134.655Z" fill="white"/>
<defs>
<filter id="filter0_d_246_459" x="0" y="0" width="269" height="343" filterUnits="userSpaceOnUse" color-interpolation-filters="sRGB">
<feFlood flood-opacity="0" result="BackgroundImageFix"/>
<feColorMatrix in="SourceAlpha" type="matrix" values="0 0 0 0 0 0 0 0 0 0 0 0 0 0 0 0 0 0 127 0" result="hardAlpha"/>
<feOffset/>
<feGaussianBlur stdDeviation="21.5"/>
<feComposite in2="hardAlpha" operator="out"/>
<feColorMatrix type="matrix" values="0 0 0 0 0 0 0 0 0 0.941176 0 0 0 0 1 0 0 0 0.3 0"/>
<feBlend mode="normal" in2="BackgroundImageFix" result="effect1_dropShadow_246_459"/>
<feBlend mode="normal" in="SourceGraphic" in2="effect1_dropShadow_246_459" result="shape"/>
</filter>
</defs>
</svg>
