<svg width="155" height="155" viewBox="0 0 155 155" fill="none" xmlns="http://www.w3.org/2000/svg">
<path d="M155 77.5C155 120.302 120.302 155 77.5 155C34.6979 155 0 120.302 0 77.5C0 34.6979 34.6979 0 77.5 0C120.302 0 155 34.6979 155 77.5ZM18.7999 77.5C18.7999 109.919 45.0808 136.2 77.5 136.2C109.919 136.2 136.2 109.919 136.2 77.5C136.2 45.0808 109.919 18.7999 77.5 18.7999C45.0808 18.7999 18.7999 45.0808 18.7999 77.5Z" fill="#F12095"/>
<path d="M84.3636 145.253C84.8868 150.418 81.1146 155.09 75.9243 154.984C64.8412 154.759 53.8969 152.157 43.8457 147.311C30.9618 141.1 20.048 131.445 12.3126 119.415C4.57709 107.384 0.321704 93.4478 0.0175278 79.1482C-0.286649 64.8486 3.37225 50.7438 10.5891 38.3952C17.806 26.0466 28.2994 15.936 40.9075 9.18281C53.5156 2.42957 67.7466 -0.702893 82.025 0.132217C96.3035 0.967326 110.072 5.73743 121.807 13.9144C130.962 20.2936 138.6 28.5521 144.236 38.0978C146.876 42.5683 144.657 48.1475 139.9 50.2266C135.143 52.3057 129.661 50.0799 126.85 45.7154C122.721 39.3043 117.365 33.733 111.059 29.339C102.171 23.1456 91.7421 19.5326 80.9274 18.9001C70.1126 18.2675 59.3337 20.6401 49.7841 25.7552C40.2345 30.8702 32.2866 38.5282 26.8204 47.8812C21.3541 57.2343 18.5828 67.9176 18.8132 78.7484C19.0436 89.5792 22.2667 100.135 28.1257 109.247C33.9847 118.359 42.2511 125.672 52.0096 130.377C58.9329 133.714 66.4156 135.646 74.0281 136.097C79.2105 136.404 83.8403 140.088 84.3636 145.253Z" fill="#FFD000"/>
</svg>
