<svg width="122" height="45" viewBox="0 0 122 45" fill="none" xmlns="http://www.w3.org/2000/svg">
<path d="M12.2666 1.79199V5.22783H7.94699V15.6462H4.375V5.22783H0V1.79199H12.2666ZM22.0658 8.55283C23.358 9.18086 24.0041 10.2338 24.0041 11.7116C24.0041 12.8753 23.5979 13.8267 22.7858 14.5655C21.9919 15.2859 20.8566 15.6462 19.3799 15.6462H12.0975V1.79199H18.8261C20.2844 1.79199 21.4104 2.1522 22.2043 2.87262C23.0165 3.59303 23.4226 4.53512 23.4226 5.69887C23.4226 6.91803 22.9703 7.86938 22.0658 8.55283ZM18.4938 4.72907H15.4479V7.22283H18.4938C19.5091 7.22283 20.0168 6.8072 20.0168 5.97595C20.0168 5.1447 19.5091 4.72907 18.4938 4.72907ZM18.9646 12.626C19.9983 12.626 20.5152 12.1826 20.5152 11.2959C20.5152 10.908 20.3767 10.6032 20.0998 10.3816C19.8229 10.1599 19.4445 10.0491 18.9646 10.0491H15.4479V12.626H18.9646Z" fill="#252424"/>
<path d="M8.62416 24.3618C10.4886 24.3618 12.0761 25.073 13.3868 26.4954C14.7159 27.8993 15.3805 29.6264 15.3805 31.6769C15.3805 33.7273 14.7159 35.4636 13.3868 36.886C12.0761 38.2899 10.4886 38.9919 8.62416 38.9919C6.68587 38.9919 5.19062 38.3176 4.1384 36.9691V44.1456H0.566406V24.7498H4.1384V26.3846C5.19062 25.0361 6.68587 24.3618 8.62416 24.3618ZM5.21831 34.5031C5.93824 35.2235 6.85201 35.5837 7.9596 35.5837C9.0672 35.5837 9.98096 35.2235 10.7009 34.5031C11.4393 33.7642 11.8085 32.8222 11.8085 31.6769C11.8085 30.5315 11.4393 29.5987 10.7009 28.8783C9.98096 28.1394 9.0672 27.77 7.9596 27.77C6.85201 27.77 5.93824 28.1394 5.21831 28.8783C4.49837 29.5987 4.1384 30.5315 4.1384 31.6769C4.1384 32.8222 4.49837 33.7642 5.21831 34.5031ZM25.5144 24.7498H29.0863V38.6039H25.5144V36.9691C24.4436 38.3176 22.9392 38.9919 21.0009 38.9919C19.1549 38.9919 17.5674 38.2899 16.2382 36.886C14.9276 35.4636 14.2723 33.7273 14.2723 31.6769C14.2723 29.6264 14.9276 27.8993 16.2382 26.4954C17.5674 25.073 19.1549 24.3618 21.0009 24.3618C22.9392 24.3618 24.4436 25.0361 25.5144 26.3846V24.7498ZM18.9242 34.5031C19.6441 35.2235 20.5579 35.5837 21.6655 35.5837C22.7731 35.5837 23.6868 35.2235 24.4068 34.5031C25.1451 33.7642 25.5144 32.8222 25.5144 31.6769C25.5144 30.5315 25.1451 29.5987 24.4068 28.8783C23.6868 28.1394 22.7731 27.77 21.6655 27.77C20.5579 27.77 19.6441 28.1394 18.9242 28.8783C18.2042 29.5987 17.8443 30.5315 17.8443 31.6769C17.8443 32.8222 18.2042 33.7642 18.9242 34.5031ZM35.9805 38.9919C33.8022 38.9919 32.0393 38.2899 30.6917 36.886C29.3626 35.4822 28.6981 33.6996 28.6981 31.5383C28.6981 29.1738 29.0488 27.3544 29.7503 26.0798C30.4517 24.7867 31.8639 23.6137 33.9868 22.5608C34.3006 22.413 34.7436 22.2099 35.3159 21.9512C35.8882 21.6741 36.2758 21.4802 36.4789 21.3693C36.7004 21.2585 36.9958 21.0923 37.365 20.8706C37.7341 20.6489 37.9926 20.455 38.1403 20.2887C38.3064 20.104 38.4818 19.8731 38.6664 19.596C38.851 19.3189 38.9987 19.0141 39.1094 18.6816L42.0446 20.3719C41.8045 21.4986 41.26 22.3761 40.4109 23.0041C39.5802 23.6137 38.3249 24.2418 36.645 24.8883C35.4636 25.3501 34.6052 25.8119 34.0699 26.2737C33.5345 26.7355 33.1469 27.2897 32.9069 27.9362C33.9406 26.8833 35.3251 26.3568 37.0604 26.3568C38.5925 26.3568 39.9586 26.9203 41.1585 28.0471C42.3583 29.1554 42.9583 30.6332 42.9583 32.4804C42.9583 34.383 42.3122 35.9439 41.02 37.1631C39.7463 38.3823 38.0664 38.9919 35.9805 38.9919ZM33.433 34.7802C34.116 35.4082 34.956 35.7223 35.9528 35.7223C36.9496 35.7223 37.7711 35.4175 38.4172 34.8079C39.0632 34.1983 39.3863 33.4225 39.3863 32.4804C39.3863 31.5383 39.0632 30.7625 38.4172 30.1529C37.7711 29.5249 36.9404 29.2108 35.9251 29.2108C35.0205 29.2108 34.2083 29.4972 33.4884 30.0698C32.7869 30.6424 32.4362 31.409 32.4362 32.3696C32.4362 33.3486 32.7685 34.1522 33.433 34.7802Z" fill="#252424"/>
<path d="M51.1464 24.75H89.1211C92.398 24.75 95.0547 27.4083 95.0547 30.6875V31.0833V31.4792C95.0547 34.7583 92.398 37.4167 89.1211 37.4167H51.1464C47.8695 37.4167 45.2129 34.7583 45.2129 31.4792V30.6875C45.2129 27.4083 47.8695 24.75 51.1464 24.75Z" stroke="#F12095" stroke-width="3"/>
<path d="M31.3691 1.79199H102.572C105.849 1.79199 108.505 4.45033 108.505 7.72949V8.12533V8.52116C108.505 11.8003 105.849 14.4587 102.572 14.4587H31.3691C28.0921 14.4587 25.4355 11.8003 25.4355 8.52116V7.72949C25.4355 4.45033 28.0921 1.79199 31.3691 1.79199Z" stroke="#FFD000" stroke-width="3"/>
<path d="M121.637 1V14.8542H118.148V10.5317H116.902L113.718 14.8542H109.592L113.053 10.116C112.167 9.74657 111.457 9.1647 110.921 8.37042C110.404 7.55761 110.146 6.68947 110.146 5.76583C110.146 4.4728 110.607 3.35521 111.53 2.41312C112.453 1.47104 113.662 1 115.157 1H121.637ZM115.434 4.18646C114.918 4.18646 114.483 4.34345 114.133 4.6575C113.801 4.95303 113.635 5.35947 113.635 5.87667C113.635 6.37542 113.801 6.7726 114.133 7.06813C114.483 7.36366 114.918 7.51146 115.434 7.51146H118.148V4.18646H115.434Z" fill="#252424"/>
<path d="M108.786 23.9582V27.3941H104.467V37.8124H100.895V27.3941H96.5195V23.9582H108.786ZM117.768 23.9582H121.34V37.8124H117.768V36.1776C116.697 37.5261 115.193 38.2003 113.255 38.2003C111.408 38.2003 109.821 37.4983 108.492 36.0945C107.181 34.6721 106.526 32.9357 106.526 30.8853C106.526 28.8349 107.181 27.1077 108.492 25.7039C109.821 24.2815 111.408 23.5703 113.255 23.5703C115.193 23.5703 116.697 24.2446 117.768 25.593V23.9582ZM111.178 33.7116C111.898 34.432 112.811 34.7922 113.919 34.7922C115.027 34.7922 115.94 34.432 116.66 33.7116C117.398 32.9727 117.768 32.0306 117.768 30.8853C117.768 29.74 117.398 28.8072 116.66 28.0868C115.94 27.3479 115.027 26.9784 113.919 26.9784C112.811 26.9784 111.898 27.3479 111.178 28.0868C110.458 28.8072 110.098 29.74 110.098 30.8853C110.098 32.0306 110.458 32.9727 111.178 33.7116Z" fill="#252424"/>
</svg>
