<svg width="27" height="31" viewBox="0 0 27 31" fill="none" xmlns="http://www.w3.org/2000/svg">
<g filter="url(#filter0_d_105_1672)">
<mask id="path-1-outside-1_105_1672" maskUnits="userSpaceOnUse" x="3" y="2" width="21" height="25" fill="black">
<rect fill="white" x="3" y="2" width="21" height="25"/>
<path fill-rule="evenodd" clip-rule="evenodd" d="M9.26038 16.5294L8.04441 14.6966C7.21413 13.4452 5.44559 12.9886 4.09281 13.6747L4.40802 13.5148C4.0723 13.6851 3.91132 14.1095 4.04955 14.4623L5.73273 18.7583C5.99956 19.4393 6.68105 20.4025 7.24576 20.8863C7.24576 20.8863 10.6319 23.6511 10.6319 24.6877V26H16.1178L17.4893 23.2941L18.8607 26H20.2322V24.6877C20.2322 23.6511 22.3016 20.3862 22.3016 20.3862C22.6825 19.7516 23 18.6336 23 17.8913V12.4324C22.9752 11.2239 21.9338 10.2444 20.6488 10.2444C20.0059 10.2444 19.4852 10.7341 19.4852 11.3387V11.776C19.4852 10.5674 18.4438 9.58789 17.1588 9.58789C16.5159 9.58789 15.9952 10.0776 15.9952 10.6823V11.1195C15.9952 9.91088 14.9538 8.93141 13.6688 8.93141C13.0259 8.93141 12.5052 9.42114 12.5052 10.0258V10.463C12.5052 10.2688 12.4842 10.1143 12.4435 9.99199L12.0886 4.35458C12.0406 3.59226 11.3893 3 10.6319 3C9.86913 3 9.26038 3.60562 9.26038 4.35268V9.76471V16.5294ZM18.8856 15.1765H20.257V20.5882H18.8856V15.1765ZM16.1426 15.1765H17.5141V20.5882H16.1426V15.1765ZM13.3996 15.1765H14.7711V20.5882H13.3996V15.1765Z"/>
</mask>
<path fill-rule="evenodd" clip-rule="evenodd" d="M9.26038 16.5294L8.04441 14.6966C7.21413 13.4452 5.44559 12.9886 4.09281 13.6747L4.40802 13.5148C4.0723 13.6851 3.91132 14.1095 4.04955 14.4623L5.73273 18.7583C5.99956 19.4393 6.68105 20.4025 7.24576 20.8863C7.24576 20.8863 10.6319 23.6511 10.6319 24.6877V26H16.1178L17.4893 23.2941L18.8607 26H20.2322V24.6877C20.2322 23.6511 22.3016 20.3862 22.3016 20.3862C22.6825 19.7516 23 18.6336 23 17.8913V12.4324C22.9752 11.2239 21.9338 10.2444 20.6488 10.2444C20.0059 10.2444 19.4852 10.7341 19.4852 11.3387V11.776C19.4852 10.5674 18.4438 9.58789 17.1588 9.58789C16.5159 9.58789 15.9952 10.0776 15.9952 10.6823V11.1195C15.9952 9.91088 14.9538 8.93141 13.6688 8.93141C13.0259 8.93141 12.5052 9.42114 12.5052 10.0258V10.463C12.5052 10.2688 12.4842 10.1143 12.4435 9.99199L12.0886 4.35458C12.0406 3.59226 11.3893 3 10.6319 3C9.86913 3 9.26038 3.60562 9.26038 4.35268V9.76471V16.5294ZM18.8856 15.1765H20.257V20.5882H18.8856V15.1765ZM16.1426 15.1765H17.5141V20.5882H16.1426V15.1765ZM13.3996 15.1765H14.7711V20.5882H13.3996V15.1765Z" fill="white"/>
<path d="M9.26038 16.5294L8.4271 17.0823L10.2604 19.8455V16.5294H9.26038ZM8.04441 14.6966L8.87769 14.1438L8.04441 14.6966ZM4.04955 14.4623L3.11847 14.8271H3.11847L4.04955 14.4623ZM5.73273 18.7583L6.66381 18.3935H6.66381L5.73273 18.7583ZM7.24576 20.8863L6.59512 21.6457L6.60412 21.6534L6.6133 21.6609L7.24576 20.8863ZM10.6319 26H9.63186V27H10.6319V26ZM16.1178 26V27H16.732L17.0098 26.4521L16.1178 26ZM17.4893 23.2941L18.3812 22.842L17.4893 21.0822L16.5973 22.842L17.4893 23.2941ZM18.8607 26L17.9688 26.4521L18.2465 27H18.8607V26ZM20.2322 26V27H21.2322V26H20.2322ZM22.3016 20.3862L23.1462 20.9216L23.1527 20.9113L23.159 20.9008L22.3016 20.3862ZM23 12.4324H24V12.4222L23.9998 12.4119L23 12.4324ZM12.4435 9.99199L11.4455 10.0548L11.4537 10.1842L11.4945 10.3073L12.4435 9.99199ZM12.0886 4.35458L11.0906 4.41742L12.0886 4.35458ZM9.26038 4.35268H8.26038H9.26038ZM20.257 15.1765H21.257V14.1765H20.257V15.1765ZM20.257 20.5882V21.5882H21.257V20.5882H20.257ZM18.8856 20.5882H17.8856V21.5882H18.8856V20.5882ZM18.8856 15.1765V14.1765H17.8856V15.1765H18.8856ZM17.5141 15.1765H18.5141V14.1765H17.5141V15.1765ZM17.5141 20.5882V21.5882H18.5141V20.5882H17.5141ZM16.1426 20.5882H15.1426V21.5882H16.1426V20.5882ZM16.1426 15.1765V14.1765H15.1426V15.1765H16.1426ZM14.7711 15.1765H15.7711V14.1765H14.7711V15.1765ZM14.7711 20.5882V21.5882H15.7711V20.5882H14.7711ZM13.3996 20.5882H12.3996V21.5882H13.3996V20.5882ZM13.3996 15.1765V14.1765H12.3996V15.1765H13.3996ZM10.0937 15.9766L8.87769 14.1438L7.21113 15.2495L8.4271 17.0823L10.0937 15.9766ZM8.87769 14.1438C7.76212 12.4623 5.43796 11.8712 3.64051 12.7828L4.54512 14.5665C5.45322 14.106 6.66615 14.428 7.21113 15.2495L8.87769 14.1438ZM4.54512 14.5665L4.86033 14.4067L3.95572 12.6229L3.64051 12.7828L4.54512 14.5665ZM3.95571 12.6229C3.15719 13.0279 2.79366 13.9981 3.11847 14.8271L4.98063 14.0975C5.00989 14.1722 5.00112 14.235 4.98627 14.2742C4.97147 14.3133 4.93551 14.3685 4.86033 14.4067L3.95571 12.6229ZM3.11847 14.8271L4.80164 19.1231L6.66381 18.3935L4.98063 14.0975L3.11847 14.8271ZM4.80164 19.1231C5.12796 19.9559 5.90546 21.0548 6.59512 21.6457L7.8964 20.1269C7.45664 19.7501 6.87116 18.9227 6.66381 18.3935L4.80164 19.1231ZM7.24576 20.8863C6.6133 21.6609 6.61324 21.6609 6.6132 21.6608C6.6132 21.6608 6.61317 21.6608 6.61318 21.6608C6.61319 21.6608 6.61325 21.6609 6.61336 21.6609C6.61358 21.6611 6.614 21.6615 6.61463 21.662C6.61587 21.663 6.61792 21.6647 6.62073 21.667C6.62635 21.6716 6.63505 21.6788 6.64662 21.6883C6.66977 21.7075 6.70437 21.7362 6.7488 21.7735C6.8377 21.848 6.96564 21.9564 7.11954 22.0899C7.42837 22.3578 7.83695 22.7228 8.24271 23.1162C8.65297 23.514 9.03918 23.9205 9.31576 24.2733C9.45459 24.4504 9.54813 24.5918 9.60267 24.6948C9.668 24.8181 9.63186 24.8012 9.63186 24.6877H11.6319C11.6319 24.315 11.4899 23.9849 11.3701 23.7587C11.2394 23.512 11.0684 23.2674 10.8898 23.0395C10.5315 22.5824 10.0712 22.1033 9.63491 21.6803C9.19416 21.253 8.75621 20.862 8.43014 20.5791C8.2666 20.4373 8.13 20.3215 8.03372 20.2408C7.98556 20.2004 7.94742 20.1688 7.92096 20.1469C7.90773 20.136 7.89741 20.1275 7.89022 20.1216C7.88663 20.1186 7.88381 20.1163 7.88181 20.1146C7.8808 20.1138 7.88 20.1132 7.8794 20.1127C7.8791 20.1124 7.87885 20.1122 7.87866 20.1121C7.87856 20.112 7.87845 20.1119 7.8784 20.1119C7.87831 20.1118 7.87822 20.1117 7.24576 20.8863ZM9.63186 24.6877V26H11.6319V24.6877H9.63186ZM10.6319 27H16.1178V25H10.6319V27ZM17.0098 26.4521L18.3812 23.7462L16.5973 22.842L15.2258 25.5479L17.0098 26.4521ZM16.5973 23.7462L17.9688 26.4521L19.7527 25.5479L18.3812 22.842L16.5973 23.7462ZM18.8607 27H20.2322V25H18.8607V27ZM21.2322 26V24.6877H19.2322V26H21.2322ZM21.2322 24.6877C21.2322 24.7015 21.233 24.6458 21.2789 24.4928C21.3209 24.353 21.3863 24.1781 21.4745 23.9728C21.6506 23.5625 21.8924 23.0884 22.1442 22.6281C22.3943 22.171 22.6455 21.743 22.835 21.4283C22.9295 21.2713 23.008 21.1434 23.0626 21.0553C23.0899 21.0113 23.1112 20.9772 23.1255 20.9545C23.1326 20.9431 23.138 20.9345 23.1415 20.929C23.1433 20.9262 23.1445 20.9242 23.1453 20.923C23.1457 20.9223 23.146 20.9219 23.1461 20.9217C23.1462 20.9216 23.1463 20.9215 23.1463 20.9215C23.1463 20.9215 23.1463 20.9215 23.1463 20.9215C23.1462 20.9215 23.1462 20.9216 22.3016 20.3862C21.4569 19.8509 21.4569 19.8509 21.4568 19.851C21.4568 19.8511 21.4568 19.8512 21.4567 19.8512C21.4566 19.8514 21.4564 19.8517 21.4563 19.8519C21.4559 19.8525 21.4554 19.8532 21.4548 19.8542C21.4536 19.8561 21.4519 19.8588 21.4498 19.8622C21.4454 19.8691 21.4392 19.879 21.4312 19.8918C21.4151 19.9174 21.3919 19.9545 21.3627 20.0017C21.3041 20.0962 21.221 20.2315 21.1215 20.3968C20.9229 20.7267 20.6569 21.1797 20.3896 21.6683C20.124 22.1538 19.8485 22.6903 19.6367 23.1838C19.4471 23.6252 19.2322 24.1982 19.2322 24.6877H21.2322ZM23.159 20.9008C23.4094 20.4836 23.6141 19.9557 23.7563 19.4498C23.8983 18.9447 24 18.384 24 17.8913H22C22 18.1408 21.9429 18.5103 21.831 18.9084C21.7192 19.3058 21.5747 19.6542 21.4442 19.8716L23.159 20.9008ZM24 17.8913V12.4324H22V17.8913H24ZM23.9998 12.4119C23.9629 10.6149 22.4326 9.24438 20.6488 9.24438V11.2444C21.4349 11.2444 21.9875 11.8329 22.0002 12.453L23.9998 12.4119ZM20.6488 9.24438C19.5123 9.24438 18.4852 10.1249 18.4852 11.3387H20.4852C20.4852 11.3329 20.4859 11.3169 20.511 11.2933C20.5372 11.2686 20.5835 11.2444 20.6488 11.2444V9.24438ZM18.4852 11.3387V11.776H20.4852V11.3387H18.4852ZM20.4852 11.776C20.4852 9.9582 18.9374 8.58789 17.1588 8.58789V10.5879C17.9502 10.5879 18.4852 11.1765 18.4852 11.776H20.4852ZM17.1588 8.58789C16.0223 8.58789 14.9952 9.46846 14.9952 10.6823H16.9952C16.9952 10.6764 16.9959 10.6604 17.021 10.6368C17.0473 10.6121 17.0935 10.5879 17.1588 10.5879V8.58789ZM14.9952 10.6823V11.1195H16.9952V10.6823H14.9952ZM16.9952 11.1195C16.9952 9.30172 15.4474 7.93141 13.6688 7.93141V9.93141C14.4602 9.93141 14.9952 10.52 14.9952 11.1195H16.9952ZM13.6688 7.93141C12.5323 7.93141 11.5052 8.81198 11.5052 10.0258H13.5052C13.5052 10.0199 13.5059 10.0039 13.5311 9.98029C13.5573 9.95564 13.6036 9.93141 13.6688 9.93141V7.93141ZM11.5052 10.0258V10.463H13.5052V10.0258H11.5052ZM13.5052 10.463C13.5052 10.204 13.4782 9.9344 13.3925 9.67666L11.4945 10.3073C11.4917 10.2986 11.4947 10.3048 11.4983 10.3317C11.5018 10.3586 11.5052 10.4011 11.5052 10.463H13.5052ZM13.4416 9.92916L13.0866 4.29175L11.0906 4.41742L11.4455 10.0548L13.4416 9.92916ZM13.0866 4.29175C13.0045 2.9875 11.9019 2 10.6319 2V4C10.8767 4 11.0767 4.19703 11.0906 4.41742L13.0866 4.29175ZM10.6319 2C9.32738 2 8.26038 3.04286 8.26038 4.35268H10.2604C10.2604 4.16837 10.4109 4 10.6319 4V2ZM8.26038 4.35268V9.76471H10.2604V4.35268H8.26038ZM8.26038 9.76471V16.5294H10.2604V9.76471H8.26038ZM18.8856 16.1765H20.257V14.1765H18.8856V16.1765ZM19.257 15.1765V20.5882H21.257V15.1765H19.257ZM20.257 19.5882H18.8856V21.5882H20.257V19.5882ZM19.8856 20.5882V15.1765H17.8856V20.5882H19.8856ZM16.1426 16.1765H17.5141V14.1765H16.1426V16.1765ZM16.5141 15.1765V20.5882H18.5141V15.1765H16.5141ZM17.5141 19.5882H16.1426V21.5882H17.5141V19.5882ZM17.1426 20.5882V15.1765H15.1426V20.5882H17.1426ZM13.3996 16.1765H14.7711V14.1765H13.3996V16.1765ZM13.7711 15.1765V20.5882H15.7711V15.1765H13.7711ZM14.7711 19.5882H13.3996V21.5882H14.7711V19.5882ZM14.3996 20.5882V15.1765H12.3996V20.5882H14.3996Z" fill="black" fill-opacity="0.8" mask="url(#path-1-outside-1_105_1672)"/>
</g>
<defs>
<filter id="filter0_d_105_1672" x="0" y="0" width="27" height="31" filterUnits="userSpaceOnUse" color-interpolation-filters="sRGB">
<feFlood flood-opacity="0" result="BackgroundImageFix"/>
<feColorMatrix in="SourceAlpha" type="matrix" values="0 0 0 0 0 0 0 0 0 0 0 0 0 0 0 0 0 0 127 0" result="hardAlpha"/>
<feOffset dy="1"/>
<feGaussianBlur stdDeviation="1.5"/>
<feColorMatrix type="matrix" values="0 0 0 0 0 0 0 0 0 0 0 0 0 0 0 0 0 0 0.2 0"/>
<feBlend mode="normal" in2="BackgroundImageFix" result="effect1_dropShadow_105_1672"/>
<feBlend mode="normal" in="SourceGraphic" in2="effect1_dropShadow_105_1672" result="shape"/>
</filter>
</defs>
</svg>
