<svg width="36" height="33" viewBox="0 0 36 33" fill="none" xmlns="http://www.w3.org/2000/svg">
<g clip-path="url(#clip0_105_1687)">
<rect width="36" height="34" rx="7" fill="black" fill-opacity="0.1"/>
<path d="M18 16.1003C19.094 16.1003 20.1432 15.6736 20.9167 14.9141C21.6903 14.1545 22.1249 13.1243 22.1249 12.0502C22.1249 10.976 21.6903 9.94582 20.9167 9.18627C20.1432 8.42671 19.094 8 18 8C16.906 8 15.8568 8.42671 15.0833 9.18627C14.3097 9.94582 13.8751 10.976 13.8751 12.0502C13.8751 13.1243 14.3097 14.1545 15.0833 14.9141C15.8568 15.6736 16.906 16.1003 18 16.1003ZM18 17.8798C12.5157 17.8798 9 20.8514 9 22.2983V25H27V22.2983C27 20.5486 23.6716 17.8798 18 17.8798Z" fill="white"/>
</g>
<defs>
<clipPath id="clip0_105_1687">
<rect width="36" height="33" fill="white"/>
</clipPath>
</defs>
</svg>
