<svg width="35" height="35" viewBox="0 0 35 35" fill="none" xmlns="http://www.w3.org/2000/svg">
<path d="M32.8125 17.5C32.8125 9.04314 25.9569 2.1875 17.5 2.1875C9.04314 2.1875 2.1875 9.04314 2.1875 17.5C2.1875 25.9569 9.04314 32.8125 17.5 32.8125C25.9569 32.8125 32.8125 25.9569 32.8125 17.5Z" fill="#1275B1"/>
<path d="M13.8016 10.6008C13.8016 11.623 12.9155 12.4516 11.8227 12.4516C10.7297 12.4516 9.84375 11.623 9.84375 10.6008C9.84375 9.57863 10.7297 8.75 11.8227 8.75C12.9155 8.75 13.8016 9.57863 13.8016 10.6008Z" fill="white"/>
<path d="M10.1133 13.8125H13.496V24.063H10.1133V13.8125Z" fill="white"/>
<path d="M18.9433 13.8111H15.5605V24.0616H18.9433C18.9433 24.0616 18.9433 20.8346 18.9433 18.817C18.9433 17.6059 19.3568 16.3895 21.0068 16.3895C22.8714 16.3895 22.8602 17.9743 22.8515 19.2022C22.8401 20.807 22.8672 22.4449 22.8672 24.0616H26.25V18.6516C26.2213 15.1972 25.3212 13.6055 22.3598 13.6055C20.6012 13.6055 19.5111 14.4039 18.9433 15.1262V13.8111Z" fill="white"/>
</svg>
