<svg width="31" height="31" viewBox="0 0 31 31" fill="none" xmlns="http://www.w3.org/2000/svg">
<g clip-path="url(#clip0_105_3855)">
<path d="M15.5 0C6.93952 0 0 6.93952 0 15.5C0 24.0605 6.93952 31 15.5 31C24.0605 31 31 24.0605 31 15.5C31 6.93952 24.0605 0 15.5 0Z" fill="#40B3E0"/>
<path d="M23.0413 8.91485L20.2729 22.873C20.2729 22.873 19.8857 23.841 18.821 23.3764L12.4323 18.4784L10.1092 17.3556L6.19863 16.039C6.19863 16.039 5.59849 15.8262 5.54037 15.3615C5.48236 14.8969 6.21801 14.6453 6.21801 14.6453L21.7635 8.54697C21.7635 8.54697 23.0413 7.98558 23.0413 8.91485Z" fill="white"/>
<path d="M11.9414 22.7177C11.9414 22.7177 11.7549 22.7002 11.5225 21.9645C11.2903 21.2288 10.1094 17.357 10.1094 17.357L19.4986 11.3943C19.4986 11.3943 20.0408 11.0652 20.0214 11.3943C20.0214 11.3943 20.1181 11.4523 19.8278 11.7233C19.5374 11.9945 12.4518 18.3636 12.4518 18.3636" fill="#D2E5F1"/>
<path d="M14.882 20.3572L12.3551 22.6611C12.3551 22.6611 12.1576 22.811 11.9414 22.7171L12.4253 18.4375" fill="#B5CFE4"/>
</g>
<defs>
<clipPath id="clip0_105_3855">
<rect width="31" height="31" fill="white"/>
</clipPath>
</defs>
</svg>
